<?xml version="1.0" encoding="UTF-8"?> <svg xmlns="http://www.w3.org/2000/svg" width="24" height="24" viewBox="0 0 24 24" fill="none"><path d="M23.2042 4.5581C22.353 4.95005 21.4375 5.21452 20.4764 5.33317C21.4573 4.72434 22.21 3.75971 22.5648 2.6096C21.647 3.17396 20.631 3.58373 19.5489 3.80466C18.6828 2.84792 17.4484 2.25 16.0826 2.25C13.4598 2.25 11.3333 4.45416 11.3333 7.17277C11.3333 7.55852 11.3753 7.93405 11.4563 8.29433C7.50921 8.08933 4.0095 6.12967 1.66715 3.15112C1.25848 3.87792 1.02424 4.72341 1.02424 5.62595C1.02424 7.33374 1.86263 8.84038 3.13695 9.72343C2.35865 9.69752 1.62604 9.47634 0.985894 9.10744C0.985471 9.1279 0.985471 9.1486 0.985471 9.16978C0.985471 11.5545 2.62255 13.5441 4.79536 13.9967C4.39679 14.1089 3.97717 14.1693 3.54397 14.1693C3.23765 14.1693 2.9403 14.1386 2.65027 14.0809C3.25489 16.0365 5.00874 17.4599 7.08658 17.4996C5.46121 18.82 3.41362 19.607 1.18828 19.607C0.805124 19.607 0.427232 19.5834 0.055542 19.5382C2.15768 20.9352 4.65378 21.75 7.33572 21.75C16.0715 21.75 20.8481 14.2488 20.8481 7.74351C20.8481 7.53042 20.8439 7.31757 20.8348 7.10663C21.7624 6.41265 22.568 5.54558 23.2042 4.5581Z" fill="white"></path></svg> 