<svg width="40" height="40" viewBox="0 0 40 40" fill="none" xmlns="http://www.w3.org/2000/svg">
<path d="M38.9778 13.6868C38.9551 13.6179 38.9324 13.549 38.9081 13.4809C38.8837 13.4128 38.8667 13.3552 38.8448 13.2936C37.4569 9.40581 34.9014 6.04189 31.5281 3.66224C28.1549 1.28259 24.1286 0.00348836 20.0004 0C18.7767 0.00147576 17.5556 0.114624 16.3525 0.338036C8.04653 1.87014 1.53699 8.52545 0.238328 16.9139C0.0799557 17.935 0.000281996 18.9667 1.01663e-06 20C-0.000683952 22.1457 0.344767 24.2775 1.02304 26.3132C1.04574 26.3821 1.06925 26.451 1.09276 26.5191C1.11627 26.5872 1.1341 26.6448 1.15599 26.7064C2.54391 30.5942 5.09939 33.9581 8.47268 36.3378C11.846 38.7174 15.8722 39.9965 20.0004 40C21.2241 39.9985 22.4452 39.8854 23.6483 39.662C31.9543 38.1299 38.4638 31.4746 39.7625 23.0861C39.9206 22.065 40 21.0333 40 20C40.0009 17.8543 39.6558 15.7225 38.9778 13.6868ZM15.8101 31.8815C15.5232 32.1676 13.1763 31.0854 11.0613 28.9705C8.94635 26.8555 7.85441 24.5193 8.15111 24.2226C8.4478 23.9259 10.7849 25.0178 12.8999 27.1328C15.0149 29.2477 16.0963 31.5921 15.8101 31.8815ZM22.4502 28.001C22.0611 28.3909 18.8679 26.9188 15.9909 24.0418C13.1139 21.1649 11.628 17.9856 12.0317 17.5827C12.4354 17.1798 15.614 18.6649 18.491 21.5418C21.368 24.4188 22.8377 27.6119 22.4502 28.001ZM28.0007 22.4514C27.6108 22.8405 24.4185 21.3692 21.5415 18.4914C18.6644 15.6137 17.1785 12.4351 17.5814 12.0323C17.9843 11.6294 21.1645 13.1145 24.0415 15.9914C26.9185 18.8684 28.3907 22.0614 28.0007 22.4514ZM31.8919 15.8042C31.6049 16.0903 29.258 15.0081 27.1431 12.8932C25.0281 10.7782 23.9361 8.44196 24.2328 8.14527C24.5295 7.84857 26.8666 8.9405 28.9816 11.0554C31.0966 13.1704 32.1772 15.5139 31.8911 15.8009L31.8919 15.8042Z" fill="black"/>
</svg>
