<svg width="80" height="80" viewBox="0 0 80 80" fill="none" xmlns="http://www.w3.org/2000/svg">
<path fill-rule="evenodd" clip-rule="evenodd" d="M38.3376 74.86L59.8593 42.9523L55.4432 71.4356C50.791 73.7182 45.5581 75 40.0256 75C20.6815 75 5 59.33 5 40C5 31.4403 8.07498 23.5983 13.1813 17.5168L50.2941 27.6311L10.2046 33.9564L50.2941 32.2696L13.8619 51.105L52.1227 36.9082L23.9897 65.4423L55.6394 40.2817L38.3376 74.86ZM13.5718 17.0597L51.2788 23.1331L26.9403 7.52425C21.7528 9.61333 17.1809 12.9075 13.5718 17.0597ZM29.1871 6.70795L53.9514 19.619L42.8334 5.11083C41.9071 5.03741 40.9707 5 40.0256 5C36.2427 5 32.5999 5.59926 29.1871 6.70795ZM46.3035 5.56064L57.468 17.0889L54.4716 8.10612C51.8997 6.94108 49.162 6.07755 46.3035 5.56064ZM59.3951 10.8344L61.5473 15.8238V12.3847C60.8505 11.8417 60.1326 11.3245 59.3951 10.8344ZM75 41.9084L72.6598 40.2817L74.6503 45.3126C74.8207 44.1944 74.9381 43.0588 75 41.9084ZM73.3722 50.7372L68.8619 42.9523L70.2 57.7826C71.504 55.5779 72.5728 53.218 73.3722 50.7372ZM67.6918 61.4664L64.3606 43.5146L57.0126 70.6155C61.1627 68.3113 64.7952 65.1889 67.6918 61.4664Z" fill="#221E1F"/>
</svg>
