<svg width="24" height="24" viewBox="0 0 24 24" fill="none" xmlns="http://www.w3.org/2000/svg">
<path d="M0.362483 11.0817C2.81774 9.72928 5.55848 8.60053 8.1193 7.46601C12.5249 5.60775 16.948 3.7817 21.4157 2.08166C22.285 1.79199 23.8469 1.50871 24 2.79691C23.9162 4.62034 23.5712 6.43309 23.3345 8.24584C22.7339 12.2322 22.0398 16.205 21.3629 20.1783C21.1297 21.5018 19.4717 22.1869 18.4109 21.3399C15.8614 19.6179 13.2924 17.9126 10.7755 16.1506C9.95104 15.3128 10.7156 14.1098 11.4519 13.5115C13.5517 11.4422 15.7786 9.68404 17.7686 7.50775C18.3054 6.21142 16.7193 7.30393 16.1962 7.63867C13.3215 9.61963 10.5173 11.7215 7.48649 13.4625C5.93838 14.3147 4.13403 13.5864 2.58662 13.1109C1.19916 12.5364 -0.833964 11.9577 0.362343 11.0818L0.362483 11.0817Z" fill="black"/>
</svg>
